# xmcd
#
# Track frame offsets:
#	150
#	14525
#	44313
#	68342
#	98744
#	125605
#	158819
#	177356
#	215350
#
# Disc length: 3262 seconds
#
# Revision: 0
# Processed by: cddbd v1.5PL3 Copyright (c) Steve Scherf et al.
# Submitted via: audiograbber 1.83.01
#
DISCID=710cbc09
DTITLE=koop - alternative takes
DYEAR=1900
DGENRE=
TTITLE0=baby
TTITLE1=tonight
TTITLE2=a
TTITLE3=b
TTITLE4=c
TTITLE5=e
TTITLE6=f
TTITLE7=i
TTITLE8=h
EXTD=good stuff
EXTT0=
EXTT1=
EXTT2=
EXTT3=
EXTT4=
EXTT5=
EXTT6=
EXTT7=
EXTT8=
PLAYORDER=
